<svg width="286" height="61" viewBox="0 0 286 61" fill="none" xmlns="http://www.w3.org/2000/svg">
<circle cx="30.1807" cy="30.7158" r="30" fill="#EFF6F1"/>
<path d="M33.8392 23.2631C34.9037 23.2661 35.9238 23.6747 36.6765 24.3996C37.4293 25.1244 37.8536 26.1067 37.8567 27.1318V34.8685C37.8536 35.8936 37.4293 36.8758 36.6765 37.6007C35.9238 38.3256 34.9037 38.7342 33.8392 38.7372H25.805C24.7404 38.7342 23.7204 38.3256 22.9676 37.6007C22.2149 36.8758 21.7906 35.8936 21.7874 34.8685V27.1318C21.7906 26.1067 22.2149 25.1244 22.9676 24.3996C23.7204 23.6747 24.7404 23.2661 25.805 23.2631H33.8392ZM33.8392 21.7158H25.805C22.7115 21.7158 20.1807 24.153 20.1807 27.1318V34.8685C20.1807 37.8473 22.7115 40.2845 25.805 40.2845H33.8392C36.9326 40.2845 39.4635 37.8473 39.4635 34.8685V27.1318C39.4635 24.153 36.9326 21.7158 33.8392 21.7158Z" fill="#274C5B"/>
<path d="M35.0445 27.1326C34.8061 27.1326 34.5731 27.0645 34.3749 26.937C34.1767 26.8095 34.0222 26.6282 33.931 26.4162C33.8398 26.2041 33.8159 25.9708 33.8624 25.7457C33.9089 25.5205 34.0237 25.3137 34.1923 25.1514C34.3608 24.9891 34.5756 24.8786 34.8093 24.8338C35.0431 24.789 35.2854 24.812 35.5057 24.8999C35.7259 24.9877 35.9141 25.1365 36.0465 25.3273C36.179 25.5182 36.2496 25.7425 36.2496 25.9721C36.25 26.1246 36.219 26.2756 36.1586 26.4166C36.0981 26.5575 36.0094 26.6856 35.8974 26.7934C35.7854 26.9013 35.6524 26.9867 35.5061 27.0449C35.3597 27.1031 35.2028 27.1329 35.0445 27.1326ZM29.8222 27.906C30.4578 27.906 31.0792 28.0875 31.6077 28.4276C32.1363 28.7677 32.5482 29.251 32.7915 29.8166C33.0347 30.3821 33.0984 31.0044 32.9744 31.6047C32.8504 32.2051 32.5443 32.7565 32.0948 33.1894C31.6453 33.6222 31.0726 33.917 30.4492 34.0364C29.8257 34.1558 29.1795 34.0945 28.5922 33.8603C28.005 33.626 27.503 33.2293 27.1499 32.7204C26.7967 32.2114 26.6082 31.6131 26.6082 31.0009C26.6091 30.1804 26.948 29.3937 27.5506 28.8135C28.1531 28.2333 28.9701 27.9069 29.8222 27.906ZM29.8222 26.3588C28.8687 26.3588 27.9367 26.631 27.1439 27.1411C26.3512 27.6512 25.7333 28.3762 25.3684 29.2245C25.0036 30.0727 24.9081 31.0061 25.0941 31.9066C25.2801 32.8071 25.7392 33.6342 26.4134 34.2834C27.0876 34.9327 27.9466 35.3748 28.8817 35.5539C29.8168 35.733 30.7861 35.6411 31.667 35.2897C32.5478 34.9384 33.3007 34.3434 33.8304 33.58C34.3601 32.8166 34.6429 31.9191 34.6429 31.0009C34.6429 29.7698 34.135 28.589 33.2309 27.7184C32.3269 26.8479 31.1007 26.3588 29.8222 26.3588Z" fill="#274C5B"/>
<circle cx="105.181" cy="30.7158" r="30" fill="#EFF6F1"/>
<path fill-rule="evenodd" clip-rule="evenodd" d="M114.463 31.0001C114.463 25.873 110.146 21.7158 104.822 21.7158C99.4978 21.7158 95.1807 25.873 95.1807 31.0001C95.1807 35.634 98.7058 39.475 103.316 40.1721V33.6847H100.867V31.0001H103.316V28.9547C103.316 26.6282 104.755 25.3421 106.957 25.3421C108.012 25.3421 109.116 25.5236 109.116 25.5236V27.8087H107.9C106.703 27.8087 106.328 28.524 106.328 29.2593V31.0001H109.002L108.575 33.6847H106.329V40.173C110.938 39.4762 114.463 35.6353 114.463 31.0001Z" fill="#274C5B"/>
<circle cx="180.181" cy="30.7158" r="30" fill="#EFF6F1"/>
<path d="M190.841 24.6742C190.066 25.011 189.246 25.2328 188.407 25.3328C189.289 24.8164 189.952 23.9961 190.272 23.0257C189.438 23.5132 188.528 23.8553 187.579 24.0372C187.18 23.6186 186.699 23.2857 186.167 23.0585C185.635 22.8313 185.063 22.7148 184.484 22.7158C182.142 22.7158 180.246 24.5839 180.246 26.8866C180.244 27.2069 180.281 27.5263 180.355 27.8378C178.676 27.7591 177.031 27.3306 175.526 26.5798C174.022 25.829 172.691 24.7724 171.618 23.4777C171.241 24.1122 171.042 24.8361 171.042 25.5738C171.042 27.02 171.796 28.2984 172.935 29.0473C172.26 29.0313 171.599 28.8526 171.008 28.5265V28.5781C171.008 30.6011 172.471 32.2841 174.408 32.6671C174.044 32.7642 173.669 32.8134 173.292 32.8135C173.024 32.814 172.757 32.788 172.495 32.736C173.033 34.3931 174.601 35.5983 176.457 35.6327C174.949 36.7953 173.097 37.4236 171.192 37.419C170.854 37.4185 170.516 37.3984 170.181 37.3587C172.118 38.5958 174.37 39.2502 176.669 39.244C184.475 39.244 188.74 32.8867 188.74 27.373C188.74 27.1922 188.735 27.0114 188.726 26.8349C189.554 26.2462 190.27 25.5145 190.841 24.6742Z" fill="#274C5B"/>
<circle cx="255.181" cy="30.7158" r="30" fill="#EFF6F1"/>
<path d="M254.977 20.7158C249.567 20.7158 245.181 25.1005 245.181 30.5081C245.181 34.5168 247.595 37.9616 251.046 39.4785C251.019 38.7965 251.041 37.9747 251.216 37.2315C251.404 36.4359 252.476 31.8939 252.476 31.8939C252.476 31.8939 252.161 31.2687 252.161 30.3463C252.161 28.895 253 27.8108 254.05 27.8108C254.942 27.8108 255.371 28.4797 255.371 29.2797C255.371 30.1758 254.798 31.5135 254.505 32.7551C254.26 33.7955 255.025 34.6392 256.053 34.6392C257.908 34.6392 259.158 32.2567 259.158 29.4327C259.158 27.2863 257.711 25.6819 255.082 25.6819C252.113 25.6819 250.258 27.8983 250.258 30.3726C250.258 31.225 250.512 31.8283 250.906 32.2917C251.085 32.5059 251.111 32.5933 251.046 32.8381C250.997 33.0174 250.892 33.4501 250.844 33.625C250.779 33.8742 250.578 33.9616 250.355 33.8698C248.986 33.3102 248.347 31.8152 248.347 30.1278C248.347 27.3475 250.696 24.012 255.349 24.012C259.088 24.012 261.551 26.718 261.551 29.6207C261.551 33.4633 259.412 36.331 256.263 36.331C255.205 36.331 254.212 35.7583 253.871 35.1113C253.871 35.1113 253.302 37.367 253.18 37.8042C252.974 38.5605 252.568 39.3124 252.196 39.9025C253.098 40.1684 254.033 40.3039 254.973 40.3047C260.383 40.3047 264.77 35.9201 264.77 30.5125C264.77 25.1049 260.387 20.7158 254.977 20.7158Z" fill="#274C5B"/>
</svg>
