<svg width="201" height="56" viewBox="0 0 201 56" fill="none" xmlns="http://www.w3.org/2000/svg">
<path d="M70.6797 27.2188V28.499C70.6797 30.5524 70.4014 32.3955 69.8447 34.0283C69.2881 35.6611 68.5026 37.0527 67.4883 38.2031C66.474 39.3411 65.2617 40.2132 63.8516 40.8193C62.4538 41.4255 60.9014 41.7285 59.1943 41.7285C57.4997 41.7285 55.9473 41.4255 54.5371 40.8193C53.1393 40.2132 51.9271 39.3411 50.9004 38.2031C49.8737 37.0527 49.0758 35.6611 48.5068 34.0283C47.9502 32.3955 47.6719 30.5524 47.6719 28.499V27.2188C47.6719 25.153 47.9502 23.3099 48.5068 21.6895C49.0635 20.0566 49.849 18.665 50.8633 17.5146C51.89 16.3643 53.1022 15.486 54.5 14.8799C55.9102 14.2738 57.4626 13.9707 59.1572 13.9707C60.8643 13.9707 62.4167 14.2738 63.8145 14.8799C65.2246 15.486 66.4368 16.3643 67.4512 17.5146C68.4779 18.665 69.2695 20.0566 69.8262 21.6895C70.3952 23.3099 70.6797 25.153 70.6797 27.2188ZM65.0576 28.499V27.1816C65.0576 25.7467 64.9277 24.485 64.668 23.3965C64.4082 22.3079 64.0247 21.3926 63.5176 20.6504C63.0104 19.9082 62.3919 19.3516 61.6621 18.9805C60.9323 18.597 60.0973 18.4053 59.1572 18.4053C58.2171 18.4053 57.3822 18.597 56.6523 18.9805C55.9349 19.3516 55.3226 19.9082 54.8154 20.6504C54.3206 21.3926 53.9434 22.3079 53.6836 23.3965C53.4238 24.485 53.2939 25.7467 53.2939 27.1816V28.499C53.2939 29.9215 53.4238 31.1833 53.6836 32.2842C53.9434 33.3727 54.3268 34.2943 54.834 35.0488C55.3411 35.791 55.9596 36.3538 56.6895 36.7373C57.4193 37.1208 58.2542 37.3125 59.1943 37.3125C60.1344 37.3125 60.9694 37.1208 61.6992 36.7373C62.429 36.3538 63.0413 35.791 63.5361 35.0488C64.0309 34.2943 64.4082 33.3727 64.668 32.2842C64.9277 31.1833 65.0576 29.9215 65.0576 28.499ZM79.6973 25.6602V41.3574H74.3535V21.2812H79.3818L79.6973 25.6602ZM85.7461 21.1514L85.6533 26.1055C85.3936 26.0684 85.0781 26.0374 84.707 26.0127C84.3483 25.9756 84.0205 25.957 83.7236 25.957C82.9691 25.957 82.3135 26.056 81.7568 26.2539C81.2126 26.4395 80.7549 26.7178 80.3838 27.0889C80.0251 27.46 79.7529 27.9115 79.5674 28.4434C79.3942 28.9753 79.2952 29.5814 79.2705 30.2617L78.1943 29.9277C78.1943 28.6289 78.3242 27.4352 78.584 26.3467C78.8438 25.2458 79.221 24.2871 79.7158 23.4707C80.223 22.6543 80.8415 22.0234 81.5713 21.5781C82.3011 21.1328 83.1361 20.9102 84.0762 20.9102C84.373 20.9102 84.6761 20.9349 84.9854 20.9844C85.2946 21.0215 85.5482 21.0771 85.7461 21.1514ZM100.608 21.2812H105.451V40.6895C105.451 42.5202 105.043 44.0726 104.227 45.3467C103.423 46.6331 102.297 47.6042 100.85 48.2598C99.4023 48.9277 97.7201 49.2617 95.8027 49.2617C94.9616 49.2617 94.071 49.1504 93.1309 48.9277C92.2031 48.7051 91.3125 48.3587 90.459 47.8887C89.6178 47.4186 88.9128 46.8249 88.3438 46.1074L90.7002 42.9531C91.3187 43.6706 92.0361 44.2272 92.8525 44.623C93.6689 45.0312 94.5719 45.2354 95.5615 45.2354C96.5264 45.2354 97.3428 45.056 98.0107 44.6973C98.6787 44.3509 99.1921 43.8376 99.5508 43.1572C99.9095 42.4893 100.089 41.679 100.089 40.7266V25.9199L100.608 21.2812ZM87.1006 31.5605V31.1709C87.1006 29.637 87.2861 28.2454 87.6572 26.9961C88.0407 25.7344 88.5788 24.652 89.2715 23.749C89.9766 22.846 90.8301 22.1471 91.832 21.6523C92.834 21.1576 93.9658 20.9102 95.2275 20.9102C96.5635 20.9102 97.6829 21.1576 98.5859 21.6523C99.4889 22.1471 100.231 22.8522 100.812 23.7676C101.394 24.6706 101.845 25.7406 102.167 26.9775C102.501 28.2021 102.761 29.5443 102.946 31.0039V31.8574C102.761 33.2552 102.482 34.554 102.111 35.7539C101.74 36.9538 101.252 38.0052 100.646 38.9082C100.039 39.7988 99.2848 40.4915 98.3818 40.9863C97.4912 41.4811 96.4274 41.7285 95.1904 41.7285C93.9535 41.7285 92.834 41.4749 91.832 40.9678C90.8424 40.4606 89.9951 39.7493 89.29 38.834C88.585 37.9186 88.0407 36.8424 87.6572 35.6055C87.2861 34.3685 87.1006 33.0202 87.1006 31.5605ZM92.4443 31.1709V31.5605C92.4443 32.3893 92.5247 33.1624 92.6855 33.8799C92.8464 34.5973 93.0938 35.2344 93.4277 35.791C93.7741 36.3353 94.2008 36.762 94.708 37.0713C95.2275 37.3682 95.8398 37.5166 96.5449 37.5166C97.5221 37.5166 98.32 37.3125 98.9385 36.9043C99.557 36.4837 100.021 35.9085 100.33 35.1787C100.639 34.4489 100.819 33.6077 100.868 32.6553V30.2246C100.843 29.4453 100.738 28.7464 100.553 28.1279C100.367 27.4971 100.107 26.959 99.7734 26.5137C99.4395 26.0684 99.0065 25.722 98.4746 25.4746C97.9427 25.2272 97.3118 25.1035 96.582 25.1035C95.877 25.1035 95.2646 25.2643 94.7451 25.5859C94.238 25.8952 93.8112 26.3219 93.4648 26.8662C93.1309 27.4105 92.8773 28.0537 92.7041 28.7959C92.5309 29.5257 92.4443 30.3174 92.4443 31.1709ZM120.443 36.8301V27.8867C120.443 27.2435 120.338 26.693 120.128 26.2354C119.918 25.7653 119.59 25.4004 119.145 25.1406C118.712 24.8809 118.149 24.751 117.456 24.751C116.862 24.751 116.349 24.8561 115.916 25.0664C115.483 25.2643 115.149 25.555 114.914 25.9385C114.679 26.3096 114.562 26.7487 114.562 27.2559H109.218C109.218 26.4023 109.416 25.5921 109.812 24.8252C110.207 24.0583 110.783 23.3841 111.537 22.8027C112.292 22.209 113.188 21.7451 114.228 21.4111C115.279 21.0771 116.454 20.9102 117.753 20.9102C119.312 20.9102 120.697 21.1699 121.909 21.6895C123.121 22.209 124.074 22.9883 124.767 24.0273C125.472 25.0664 125.824 26.3652 125.824 27.9238V36.5146C125.824 37.6156 125.892 38.5186 126.028 39.2236C126.164 39.9163 126.362 40.5225 126.622 41.042V41.3574H121.223C120.963 40.8132 120.765 40.1328 120.629 39.3164C120.505 38.4876 120.443 37.6589 120.443 36.8301ZM121.148 29.1299L121.186 32.1543H118.198C117.493 32.1543 116.881 32.2347 116.361 32.3955C115.842 32.5563 115.415 32.7852 115.081 33.082C114.747 33.3665 114.5 33.7005 114.339 34.084C114.19 34.4674 114.116 34.888 114.116 35.3457C114.116 35.8034 114.221 36.2178 114.432 36.5889C114.642 36.9476 114.945 37.2321 115.341 37.4424C115.737 37.6403 116.201 37.7393 116.732 37.7393C117.536 37.7393 118.235 37.5785 118.829 37.2568C119.423 36.9352 119.881 36.5394 120.202 36.0693C120.536 35.5993 120.709 35.154 120.722 34.7334L122.132 36.9971C121.934 37.5042 121.662 38.0299 121.315 38.5742C120.981 39.1185 120.555 39.6318 120.035 40.1143C119.516 40.5843 118.891 40.974 118.161 41.2832C117.431 41.5801 116.565 41.7285 115.563 41.7285C114.289 41.7285 113.133 41.4749 112.094 40.9678C111.067 40.4482 110.251 39.737 109.645 38.834C109.051 37.9186 108.754 36.8796 108.754 35.7168C108.754 34.6654 108.952 33.7314 109.348 32.915C109.743 32.0986 110.325 31.4121 111.092 30.8555C111.871 30.2865 112.842 29.8597 114.005 29.5752C115.168 29.2783 116.516 29.1299 118.05 29.1299H121.148ZM135.176 25.5674V41.3574H129.832V21.2812H134.842L135.176 25.5674ZM134.396 30.6143H132.949C132.949 29.1299 133.141 27.7939 133.524 26.6064C133.908 25.4066 134.446 24.3861 135.139 23.5449C135.831 22.6914 136.654 22.042 137.606 21.5967C138.571 21.139 139.647 20.9102 140.835 20.9102C141.775 20.9102 142.635 21.0462 143.414 21.3184C144.193 21.5905 144.861 22.0234 145.418 22.6172C145.987 23.2109 146.42 23.9964 146.717 24.9736C147.026 25.9508 147.181 27.1445 147.181 28.5547V41.3574H141.8V28.5361C141.8 27.6455 141.676 26.9528 141.429 26.458C141.181 25.9632 140.816 25.6169 140.334 25.4189C139.864 25.2087 139.283 25.1035 138.59 25.1035C137.872 25.1035 137.248 25.2458 136.716 25.5303C136.196 25.8148 135.763 26.2106 135.417 26.7178C135.083 27.2126 134.829 27.7939 134.656 28.4619C134.483 29.1299 134.396 29.8473 134.396 30.6143ZM156.885 21.2812V41.3574H151.522V21.2812H156.885ZM151.188 16.0488C151.188 15.2695 151.461 14.6263 152.005 14.1191C152.549 13.612 153.279 13.3584 154.194 13.3584C155.097 13.3584 155.821 13.612 156.365 14.1191C156.922 14.6263 157.2 15.2695 157.2 16.0488C157.2 16.8281 156.922 17.4714 156.365 17.9785C155.821 18.4857 155.097 18.7393 154.194 18.7393C153.279 18.7393 152.549 18.4857 152.005 17.9785C151.461 17.4714 151.188 16.8281 151.188 16.0488ZM169.595 37.5537C170.25 37.5537 170.832 37.43 171.339 37.1826C171.846 36.9229 172.242 36.5641 172.526 36.1064C172.823 35.6364 172.978 35.0859 172.99 34.4551H178.019C178.006 35.8652 177.629 37.1208 176.887 38.2217C176.145 39.3102 175.149 40.1699 173.899 40.8008C172.65 41.4193 171.252 41.7285 169.706 41.7285C168.147 41.7285 166.787 41.4688 165.624 40.9492C164.474 40.4297 163.515 39.7122 162.748 38.7969C161.981 37.8691 161.406 36.793 161.022 35.5684C160.639 34.3314 160.447 33.0078 160.447 31.5977V31.0596C160.447 29.637 160.639 28.3135 161.022 27.0889C161.406 25.8519 161.981 24.7757 162.748 23.8604C163.515 22.9326 164.474 22.209 165.624 21.6895C166.774 21.1699 168.123 20.9102 169.669 20.9102C171.314 20.9102 172.755 21.2256 173.992 21.8564C175.242 22.4873 176.219 23.3903 176.924 24.5654C177.641 25.7282 178.006 27.1074 178.019 28.7031H172.99C172.978 28.0352 172.836 27.429 172.563 26.8848C172.304 26.3405 171.92 25.9076 171.413 25.5859C170.918 25.252 170.306 25.085 169.576 25.085C168.797 25.085 168.16 25.252 167.665 25.5859C167.17 25.9076 166.787 26.3529 166.515 26.9219C166.243 27.4785 166.051 28.1156 165.939 28.833C165.84 29.5381 165.791 30.2803 165.791 31.0596V31.5977C165.791 32.377 165.84 33.1253 165.939 33.8428C166.038 34.5602 166.224 35.1973 166.496 35.7539C166.781 36.3105 167.17 36.7497 167.665 37.0713C168.16 37.3929 168.803 37.5537 169.595 37.5537ZM186.461 12.8389V41.3574H181.117V12.8389H186.461ZM199.115 21.2812L190.395 31.2266L185.719 35.958L183.771 32.0986L187.481 27.3857L192.695 21.2812H199.115ZM193.567 41.3574L187.63 32.0801L191.322 28.8516L199.728 41.3574H193.567Z" fill="#274C5B"/>
<path d="M2.13574 41.9258H19.576H37.0163" stroke="#7EB693" stroke-width="2" stroke-miterlimit="10"/>
<path d="M6.07617 48.3574L19.5762 48.3574L33.0762 48.3574" stroke="#7EB693" stroke-width="2" stroke-miterlimit="10"/>
<path d="M19.0762 1.35742L19.0762 8.35742L19.0762 15.3574" stroke="#7EB693" stroke-width="2" stroke-miterlimit="10"/>
<path d="M19.1509 14.6426V41.0742" stroke="#7EB693" stroke-width="2" stroke-miterlimit="10"/>
<path d="M30.2106 4.41016L19.1509 15.4944" stroke="#7EB693" stroke-width="2" stroke-miterlimit="10"/>
<path d="M34.4643 8.67383L19.1509 24.0212" stroke="#7EB693" stroke-width="2" stroke-miterlimit="10"/>
<path d="M37.0165 15.4941L19.1509 32.5468" stroke="#7EB693" stroke-width="2" stroke-miterlimit="10"/>
<path d="M37.8673 23.168L19.1509 41.9259" stroke="#7EB693" stroke-width="2" stroke-miterlimit="10"/>
<path d="M37.8672 31.6953L27.6582 41.9269" stroke="#7EB693" stroke-width="2" stroke-miterlimit="10"/>
<path d="M1.28516 31.6953L11.4941 41.9269" stroke="#7EB693" stroke-width="2" stroke-miterlimit="10"/>
<path d="M8.94189 4.41016L19.1509 15.4944" stroke="#7EB693" stroke-width="2" stroke-miterlimit="10"/>
<path d="M4.68799 8.67383L19.1507 24.0212" stroke="#7EB693" stroke-width="2" stroke-miterlimit="10"/>
<path d="M2.13574 14.6426L19.1507 32.5478" stroke="#7EB693" stroke-width="2" stroke-miterlimit="10"/>
<path d="M1.28516 22.3164L19.1508 41.0743" stroke="#7EB693" stroke-width="2" stroke-miterlimit="10"/>
<path d="M19.5762 54.7158C9.47534 54.7158 1.28516 46.2635 1.28516 35.8351V19.8806C1.28516 9.45419 9.47534 1 19.5762 1C29.6789 1 37.8672 9.45419 37.8672 19.8806V35.8351C37.8691 46.2635 29.6789 54.7158 19.5762 54.7158Z" stroke="#7EB693" stroke-width="2" stroke-miterlimit="10"/>
</svg>
